<svg xmlns="http://www.w3.org/2000/svg" width="16" height="16"><g fill="none"><path class="b" d="M5.853 10.916h4.313v1H5.853z"/><path class="b" d="M14.941 4.871a.5.5 0 0 0-.369-.163h-1.263l-2.673-2.674a1 1 0 0 0-1.414 0L8 3.256v-.533a1 1 0 0 0-1-1H3.788a1 1 0 0 0-1 1v1.984h-1.36a.5.5 0 0 0-.5.546l.791 8.566a.5.5 0 0 0 .5.455H13.78a.5.5 0 0 0 .5-.455l.792-8.566a.5.5 0 0 0-.131-.382zM9.929 2.738l1.966 1.967h-3.9v-.038zm-6.141-.017H7v1.532l-.452.453H3.792zm9.536 10.551L2.676 17.186l-.7-7.567h12.043z"/></g></svg>
