<svg xmlns="http://www.w3.org/2000/svg" width="16" height="16" viewBox="0 0 16 16"><defs><style>.a,.b{fill:#606266;}.a{opacity:0;}</style></defs><g transform="translate(-485.381 -1403.576)"><rect class="a" width="16" height="16" transform="translate(485.381 1403.576)"/><g transform="translate(486.309 1405.299)"><rect class="b" width="4.313" height="1" transform="translate(4.925 9.193)"/><path class="b" d="M500.322,1408.447a.5.5,0,0,0-.369-.163H498.69l-2.673-2.674a1,1,0,0,0-1.414,0l-1.222,1.222v-.533a1,1,0,0,0-1-1h-3.212a1,1,0,0,0-1,1v1.984h-1.36a.5.5,0,0,0-.5.546l.791,8.566a.5.5,0,0,0,.5.455h11.561a.5.5,0,0,0,.5-.455l.792-8.566A.5.5,0,0,0,500.322,1408.447Zm-5.012-2.133,1.966,1.967h-3.9v-.038Zm-6.141-.017h3.212v1.532l-.452.453h-2.756Zm9.536,10.551H488.057l-.7-7.567H499.4Z" transform="translate(-486.309 -1405.299)"/></g></g></svg>
