<svg xmlns="http://www.w3.org/2000/svg" width="16" height="16" viewBox="0 0 16 16"><g transform="translate(-162 -367)"><rect class="a" opacity="0" width="16" height="16" transform="translate(162 367)"/><path class="b" d="M8,14a6,6,0,1,0-4.242-1.758A5.974,5.974,0,0,0,8,14Zm0,1a7.015,7.015,0,1,1,4.946-2.054A6.984,6.984,0,0,1,8,15ZM7.5,4a.481.481,0,0,1,.5.5v4a.5.5,0,1,1-1,0v-4A.481.481,0,0,1,7.5,4Zm0,4h4a.442.442,0,0,1,.5.5.442.442,0,0,1-.5.5h-4A.442.442,0,0,1,7,8.5.442.442,0,0,1,7.5,8Z" transform="translate(162 367)"/></g></svg>
